<svg width="173" height="36" viewBox="0 0 173 36" fill="none" xmlns="http://www.w3.org/2000/svg">
<mask id="mask0_22032_43862" style="mask-type:luminance" maskUnits="userSpaceOnUse" x="0" y="0" width="173" height="36">
<path d="M172.511 0.5H0.5V35.5H172.511V0.5Z" fill="white"/>
</mask>
<g mask="url(#mask0_22032_43862)">
<mask id="mask1_22032_43862" style="mask-type:luminance" maskUnits="userSpaceOnUse" x="0" y="0" width="28" height="36">
<path d="M27.5112 0.5H0.5V35.5H27.5112V0.5Z" fill="white"/>
</mask>
<g mask="url(#mask1_22032_43862)">
<path d="M16.6062 0.5C15.3876 0.5 14.2979 1.04039 13.5589 1.89572C12.8217 2.71346 11.7552 3.2288 10.567 3.2288C9.3789 3.2288 8.28559 2.70273 7.54658 1.86709C6.80935 1.02787 5.73036 0.5 4.5261 0.5C2.30191 0.5 0.5 2.30369 0.5 4.5261C0.5 6.74851 2.30369 8.55221 4.5261 8.55221C5.73036 8.55221 6.80935 8.02434 7.54837 7.18512C8.28738 6.35127 9.36459 5.82698 10.567 5.82698C11.7695 5.82698 12.8485 6.34948 13.5875 7.18512C14.3265 8.02255 15.4055 8.55221 16.6098 8.55221C18.834 8.55221 20.6359 6.74851 20.6359 4.5261C20.6359 2.30369 18.8304 0.5 16.6062 0.5Z" fill="url(#paint0_linear_22032_43862)"/>
<path d="M16.6062 0.5C15.3876 0.5 14.2979 1.04039 13.5589 1.89572C12.8217 2.71346 11.7552 3.2288 10.567 3.2288C9.3789 3.2288 8.28559 2.70273 7.54658 1.86709C6.80935 1.02787 5.73036 0.5 4.5261 0.5C2.30191 0.5 0.5 2.30369 0.5 4.5261C0.5 6.74851 2.30369 8.55221 4.5261 8.55221C5.73036 8.55221 6.80935 8.02434 7.54837 7.18512C8.28738 6.35127 9.36459 5.82698 10.567 5.82698C11.7695 5.82698 12.8485 6.34948 13.5875 7.18512C14.3265 8.02255 15.4055 8.55221 16.6098 8.55221C18.834 8.55221 20.6359 6.74851 20.6359 4.5261C20.6359 2.30369 18.8304 0.5 16.6062 0.5Z" fill="black" fill-opacity="0.2"/>
<path d="M22.7115 7.4375C21.4929 7.4375 20.4032 7.9779 19.6642 8.83322C18.9269 9.65097 17.8605 10.1663 16.6723 10.1663C15.4842 10.1663 14.3909 9.64023 13.6518 8.80459C12.9128 7.96716 11.8338 7.4375 10.6296 7.4375C8.40543 7.4375 6.60352 9.2412 6.60352 11.4636C6.60352 13.686 8.40722 15.4897 10.6296 15.4897C11.8338 15.4897 12.9128 14.9619 13.6518 14.1226C14.3909 13.2888 15.4681 12.7645 16.6705 12.7645C17.873 12.7645 18.952 13.287 19.691 14.1226C20.43 14.9601 21.509 15.4897 22.7133 15.4897C24.9375 15.4897 26.7394 13.686 26.7394 11.4636C26.7394 9.2412 24.9357 7.4375 22.7133 7.4375H22.7115Z" fill="url(#paint1_linear_22032_43862)"/>
<path d="M22.7115 7.4375C21.4929 7.4375 20.4032 7.9779 19.6642 8.83322C18.9269 9.65097 17.8605 10.1663 16.6723 10.1663C15.4842 10.1663 14.3909 9.64023 13.6518 8.80459C12.9128 7.96716 11.8338 7.4375 10.6296 7.4375C8.40543 7.4375 6.60352 9.2412 6.60352 11.4636C6.60352 13.686 8.40722 15.4897 10.6296 15.4897C11.8338 15.4897 12.9128 14.9619 13.6518 14.1226C14.3909 13.2888 15.4681 12.7645 16.6705 12.7645C17.873 12.7645 18.952 13.287 19.691 14.1226C20.43 14.9601 21.509 15.4897 22.7133 15.4897C24.9375 15.4897 26.7394 13.686 26.7394 11.4636C26.7394 9.2412 24.9357 7.4375 22.7133 7.4375H22.7115Z" fill="black" fill-opacity="0.2"/>
<path d="M7.54662 21.0563C8.28563 20.2224 9.36284 19.6982 10.5653 19.6982C11.7677 19.6982 12.8467 20.2207 13.5857 21.0563C14.3247 21.8937 15.4037 22.4234 16.608 22.4234C18.8322 22.4234 20.6341 20.6197 20.6341 18.3973C20.6341 16.1749 18.8304 14.3712 16.608 14.3712C15.3894 14.3712 14.2997 14.9116 13.5607 15.7669C12.8235 16.5846 11.757 17.1 10.5688 17.1C9.38073 17.1 8.28742 16.5739 7.54841 15.7383C7.27086 15.4229 6.94611 15.1525 6.58572 14.9366C6.52667 14.9026 6.4712 14.8704 6.41036 14.8382L6.38173 14.8239C6.33163 14.7988 6.28153 14.772 6.22963 14.7487C6.21532 14.7434 6.19921 14.7344 6.18132 14.7273C6.1348 14.7058 6.08827 14.6861 6.04175 14.6664C6.02386 14.6575 6.00238 14.6521 5.9827 14.6432C5.93975 14.6271 5.89502 14.6092 5.85028 14.5931C5.82702 14.5841 5.80734 14.5787 5.78408 14.5698C5.74113 14.5555 5.69819 14.543 5.65524 14.5304C5.63019 14.5251 5.60693 14.5161 5.58188 14.509C5.54072 14.4982 5.49599 14.4857 5.45483 14.4785C5.42978 14.4732 5.40294 14.466 5.37789 14.4606C5.33673 14.4517 5.292 14.4445 5.24905 14.4356C5.22221 14.432 5.19537 14.4249 5.16853 14.4213C5.12559 14.4159 5.08085 14.4087 5.03791 14.4034C5.01107 14.3998 4.98601 14.398 4.95917 14.3926C4.91086 14.3891 4.86434 14.3837 4.81423 14.3801C4.79097 14.3801 4.76771 14.3765 4.74624 14.3747C4.4688 14.3603 4.19061 14.3741 3.91597 14.4159C3.31652 14.5072 2.76003 14.7326 2.27689 15.0565C2.22321 15.0923 2.17132 15.1299 2.11943 15.1692C1.96375 15.2855 1.81702 15.4126 1.68103 15.5486C1.45378 15.7758 1.25337 16.0317 1.08338 16.3073C0.915178 16.5846 0.779185 16.8835 0.682559 17.1984C0.56446 17.5777 0.501831 17.9786 0.501831 18.3973C0.501831 18.4706 0.503621 18.5422 0.507199 18.6156C0.507199 18.6388 0.510778 18.6621 0.512568 18.6836C0.516146 18.7337 0.517936 18.782 0.525093 18.8285C0.526883 18.8554 0.530461 18.8804 0.535829 18.9072C0.541198 18.9502 0.548355 18.9967 0.553723 19.0397C0.557302 19.0665 0.56446 19.0933 0.568038 19.1202C0.576985 19.1631 0.584143 19.2079 0.59309 19.249C0.598458 19.2741 0.605615 19.3009 0.610983 19.326C0.62172 19.3689 0.632456 19.4136 0.644982 19.4566C0.65035 19.4798 0.657507 19.5049 0.666454 19.5282C0.67898 19.5747 0.693295 19.6176 0.70761 19.6642C0.712978 19.6856 0.721925 19.7053 0.729082 19.7268C0.745187 19.7751 0.76487 19.8216 0.780975 19.8681C0.786343 19.8842 0.7935 19.9021 0.802447 19.9182C0.82392 19.9701 0.845392 20.022 0.870444 20.0739C0.874022 20.0847 0.87939 20.0954 0.884759 20.1043C1.12585 20.6154 1.47149 21.0701 1.89933 21.4392C2.71708 22.1764 3.23242 23.2429 3.23242 24.4311C3.23242 25.6192 2.70635 26.7125 1.8707 27.4515C1.03328 28.1905 0.503621 29.2695 0.503621 30.4738C0.503621 32.698 2.30731 34.4999 4.52972 34.4999C6.75213 34.4999 8.55583 32.6962 8.55583 30.4738C8.55583 29.2695 8.02796 28.1905 7.18874 27.4515C6.35489 26.7125 5.8306 25.6353 5.8306 24.4329C5.8306 23.2304 6.3531 22.1514 7.18874 21.4124" fill="url(#paint2_linear_22032_43862)"/>
<path d="M7.54662 21.0563C8.28563 20.2224 9.36284 19.6982 10.5653 19.6982C11.7677 19.6982 12.8467 20.2207 13.5857 21.0563C14.3247 21.8937 15.4037 22.4234 16.608 22.4234C18.8322 22.4234 20.6341 20.6197 20.6341 18.3973C20.6341 16.1749 18.8304 14.3712 16.608 14.3712C15.3894 14.3712 14.2997 14.9116 13.5607 15.7669C12.8235 16.5846 11.757 17.1 10.5688 17.1C9.38073 17.1 8.28742 16.5739 7.54841 15.7383C7.27086 15.4229 6.94611 15.1525 6.58572 14.9366C6.52667 14.9026 6.4712 14.8704 6.41036 14.8382L6.38173 14.8239C6.33163 14.7988 6.28153 14.772 6.22963 14.7487C6.21532 14.7434 6.19921 14.7344 6.18132 14.7273C6.1348 14.7058 6.08827 14.6861 6.04175 14.6664C6.02386 14.6575 6.00238 14.6521 5.9827 14.6432C5.93975 14.6271 5.89502 14.6092 5.85028 14.5931C5.82702 14.5841 5.80734 14.5787 5.78408 14.5698C5.74113 14.5555 5.69819 14.543 5.65524 14.5304C5.63019 14.5251 5.60693 14.5161 5.58188 14.509C5.54072 14.4982 5.49599 14.4857 5.45483 14.4785C5.42978 14.4732 5.40294 14.466 5.37789 14.4606C5.33673 14.4517 5.292 14.4445 5.24905 14.4356C5.22221 14.432 5.19537 14.4249 5.16853 14.4213C5.12559 14.4159 5.08085 14.4087 5.03791 14.4034C5.01107 14.3998 4.98601 14.398 4.95917 14.3926C4.91086 14.3891 4.86434 14.3837 4.81423 14.3801C4.79097 14.3801 4.76771 14.3765 4.74624 14.3747C4.4688 14.3603 4.19061 14.3741 3.91597 14.4159C3.31652 14.5072 2.76003 14.7326 2.27689 15.0565C2.22321 15.0923 2.17132 15.1299 2.11943 15.1692C1.96375 15.2855 1.81702 15.4126 1.68103 15.5486C1.45378 15.7758 1.25337 16.0317 1.08338 16.3073C0.915178 16.5846 0.779185 16.8835 0.682559 17.1984C0.56446 17.5777 0.501831 17.9786 0.501831 18.3973C0.501831 18.4706 0.503621 18.5422 0.507199 18.6156C0.507199 18.6388 0.510778 18.6621 0.512568 18.6836C0.516146 18.7337 0.517936 18.782 0.525093 18.8285C0.526883 18.8554 0.530461 18.8804 0.535829 18.9072C0.541198 18.9502 0.548355 18.9967 0.553723 19.0397C0.557302 19.0665 0.56446 19.0933 0.568038 19.1202C0.576985 19.1631 0.584143 19.2079 0.59309 19.249C0.598458 19.2741 0.605615 19.3009 0.610983 19.326C0.62172 19.3689 0.632456 19.4136 0.644982 19.4566C0.65035 19.4798 0.657507 19.5049 0.666454 19.5282C0.67898 19.5747 0.693295 19.6176 0.70761 19.6642C0.712978 19.6856 0.721925 19.7053 0.729082 19.7268C0.745187 19.7751 0.76487 19.8216 0.780975 19.8681C0.786343 19.8842 0.7935 19.9021 0.802447 19.9182C0.82392 19.9701 0.845392 20.022 0.870444 20.0739C0.874022 20.0847 0.87939 20.0954 0.884759 20.1043C1.12585 20.6154 1.47149 21.0701 1.89933 21.4392C2.71708 22.1764 3.23242 23.2429 3.23242 24.4311C3.23242 25.6192 2.70635 26.7125 1.8707 27.4515C1.03328 28.1905 0.503621 29.2695 0.503621 30.4738C0.503621 32.698 2.30731 34.4999 4.52972 34.4999C6.75213 34.4999 8.55583 32.6962 8.55583 30.4738C8.55583 29.2695 8.02796 28.1905 7.18874 27.4515C6.35489 26.7125 5.8306 25.6353 5.8306 24.4329C5.8306 23.2304 6.3531 22.1514 7.18874 21.4124" fill="black" fill-opacity="0.2"/>
</g>
<path d="M37.4956 17.332H39.2116C40.5096 17.332 41.0376 16.672 41.0376 15.66C41.0376 14.626 40.5096 13.966 39.2116 13.966H37.4956V17.332ZM45.4376 15.66C45.4376 18.366 43.5676 20.764 39.6296 20.764H37.4956V26H33.1836V10.49H39.6296C43.4796 10.49 45.4376 12.668 45.4376 15.66ZM55.3759 15.704C55.3759 14.736 54.7819 14.098 53.6159 14.098H51.4819V17.332H53.6159C54.7819 17.332 55.3759 16.76 55.3759 15.704ZM47.1699 10.49H53.9679C57.8179 10.49 59.7539 12.69 59.7539 15.462C59.7539 17.486 58.6539 19.246 56.3439 19.95L59.8419 26H55.0239L51.9439 20.28H51.4819V26H47.1699V10.49ZM77.0928 18.19C77.0928 22.854 73.5508 26.154 69.1508 26.154C64.7508 26.154 61.1868 22.854 61.1868 18.19C61.1868 13.526 64.7508 10.248 69.1508 10.248C73.5728 10.248 77.0928 13.526 77.0928 18.19ZM65.5868 18.19C65.5868 20.588 66.9068 22.15 69.1508 22.15C71.3728 22.15 72.7148 20.588 72.7148 18.19C72.7148 15.748 71.3728 14.208 69.1508 14.208C66.9068 14.208 65.5868 15.748 65.5868 18.19ZM79.0312 26V10.49H84.2452L88.1392 20.566L91.9452 10.49H97.1372V26H92.8252V17.442L89.8992 26H86.2912L83.3432 17.376V26H79.0312ZM109.514 10.49V13.944H103.904V16.474H108.854V19.752H103.904V22.546H109.514V26H99.5918V10.49H109.514ZM121.699 10.49H126.011V26H121.699L115.957 17.332V26H111.645V10.49H115.957L121.699 19.268V10.49ZM139.115 26L138.279 23.47H132.779L131.943 26H127.411L133.065 10.49H138.037L143.669 26H139.115ZM137.201 20.17L135.529 15.154L133.879 20.17H137.201ZM151.212 10.49C156.162 10.49 159.308 13.68 159.308 18.234C159.308 22.722 156.162 26 151.212 26H145.074V10.49H151.212ZM149.386 22.194H150.882C153.368 22.194 154.93 20.786 154.93 18.234C154.93 15.66 153.368 14.23 150.882 14.23H149.386V22.194ZM171.174 10.49V13.944H165.564V16.474H170.514V19.752H165.564V22.546H171.174V26H161.252V10.49H171.174Z" fill="white"/>
</g>
<defs>
<linearGradient id="paint0_linear_22032_43862" x1="1.12475" y1="0.5" x2="27.0056" y2="1.17194" gradientUnits="userSpaceOnUse">
<stop stop-color="#F8F5B1"/>
<stop offset="0.345" stop-color="#C6A1FD"/>
<stop offset="0.675" stop-color="#89FDD6"/>
<stop offset="1" stop-color="#9294F0"/>
</linearGradient>
<linearGradient id="paint1_linear_22032_43862" x1="1.1247" y1="0.500079" x2="27.0055" y2="1.17202" gradientUnits="userSpaceOnUse">
<stop stop-color="#F8F5B1"/>
<stop offset="0.345" stop-color="#C6A1FD"/>
<stop offset="0.675" stop-color="#89FDD6"/>
<stop offset="1" stop-color="#9294F0"/>
</linearGradient>
<linearGradient id="paint2_linear_22032_43862" x1="1.12479" y1="0.499858" x2="27.0056" y2="1.1718" gradientUnits="userSpaceOnUse">
<stop stop-color="#F8F5B1"/>
<stop offset="0.345" stop-color="#C6A1FD"/>
<stop offset="0.675" stop-color="#89FDD6"/>
<stop offset="1" stop-color="#9294F0"/>
</linearGradient>
</defs>
</svg>
